<?xml version="1.0" encoding="iso-8859-1"?>
<!-- Generator: Adobe Illustrator 19.0.0, SVG Export Plug-In . SVG Version: 6.00 Build 0)  -->
<svg version="1.1" id="Capa_1" xmlns="http://www.w3.org/2000/svg" xmlns:xlink="http://www.w3.org/1999/xlink" x="0px" y="0px"
	 viewBox="0 0 512 512" style="enable-background:new 0 0 512 512;" xml:space="preserve">
<rect x="226" y="210" style="fill:#FDE6C0;" width="241" height="85"/>
<rect x="45" y="210" style="fill:#FFFFFF;" width="211" height="85"/>
<polygon style="fill:#FEB29C;" points="482,340 482,512 256,512 196,310 "/>
<polygon style="fill:#4D0E06;" points="426,310 426,512 369,512 339,310 "/>
<rect x="312" y="310" style="fill:#821C0F;" width="57" height="202"/>
<polygon style="fill:#FD8C6A;" points="226,280 482,310 482,340 256,340 "/>
<polygon style="fill:#FCD18B;" points="256,310 256,512 30,512 30,340 "/>
<polygon style="fill:#FABA51;" points="30,310 30,340 256,340 256,280 "/>
<rect x="390.73" style="fill:#EC3722;" width="60" height="60"/>
<polygon style="fill:#B72919;" points="482,225 482,310 256,310 226,295 256,280 283.2,280 283.2,225 313.2,225 313.2,280 
	367.6,280 367.6,225 397.6,225 397.6,280 452,280 452,225 "/>
<polygon style="fill:#EC3722;" points="256,280 256,310 30,310 30,225 60,225 60,280 114.4,280 114.4,225 144.4,225 144.4,280 
	198.8,280 198.8,225 228.8,225 228.8,280 "/>
<path style="fill:#4D0E06;" d="M512,225v15H256l-60-90l60-90h194.73l52.11,120.69C507.98,192.58,512,212.05,512,225z"/>
<path style="fill:#821C0F;" d="M256,60v180H0v-15c0-12.95,4.02-32.42,9.16-44.31L61.27,60H256z"/>
<polygon style="fill:#B72919;" points="206.3,370 206.3,452 143,452 113,411 143,370 "/>
<rect x="79.7" y="370" style="fill:#EC3722;" width="63.3" height="82"/>
<g>
</g>
<g>
</g>
<g>
</g>
<g>
</g>
<g>
</g>
<g>
</g>
<g>
</g>
<g>
</g>
<g>
</g>
<g>
</g>
<g>
</g>
<g>
</g>
<g>
</g>
<g>
</g>
<g>
</g>
</svg>
