<svg width="512" height="512" viewBox="0 0 512 512" fill="none" xmlns="http://www.w3.org/2000/svg">
<path d="M509.931 223.915C506.582 198.08 479.68 180.395 453.931 190.038C444.288 193.686 432.683 188.267 428.331 178.539C423.126 166.934 416.747 155.819 409.323 145.494C402.71 136.299 403.968 124.267 412.182 117.483C421.995 109.419 427.478 97.494 427.222 84.8C426.966 71.893 420.886 60.011 410.539 52.16C393.515 39.275 374.955 28.544 355.35 20.288C350.059 18.069 344.513 16.939 338.859 16.939C318.422 16.939 301.184 31.467 297.856 51.478C296.107 61.995 286.144 69.142 274.923 67.926C262.464 66.603 249.494 66.603 237.056 67.926C225.877 69.142 215.872 61.995 214.123 51.478C210.795 31.467 193.558 16.939 173.12 16.939C167.467 16.939 161.92 18.07 156.651 20.288C137.024 28.544 118.464 39.253 101.44 52.16C91.115 60.011 85.035 71.893 84.779 84.779C84.523 97.494 90.006 109.398 99.819 117.504C108.054 124.267 109.27 136.299 102.678 145.472C95.254 155.797 88.854 166.912 83.649 178.517C79.297 188.245 68.545 193.962 57.814 189.93C53.121 188.181 48.235 187.285 43.286 187.285C22.465 187.285 4.758 203.029 2.049 223.914C0.704 234.496 0 245.312 0 256C0 266.688 0.704 277.504 2.069 288.085C5.397 313.898 32.277 331.584 58.069 321.962C67.69 318.314 79.317 323.733 83.669 333.461C88.874 345.066 95.253 356.181 102.677 366.506C109.29 375.701 108.032 387.733 99.818 394.517C90.005 402.581 84.522 414.506 84.778 427.2C85.034 440.107 91.114 451.989 101.461 459.84C118.485 472.725 137.045 483.456 156.65 491.712C161.941 493.931 167.487 495.061 173.141 495.061C193.578 495.061 210.816 480.533 214.144 460.522C215.893 450.005 225.877 442.965 237.077 444.074C249.514 445.397 262.485 445.397 274.944 444.074C286.165 442.943 296.128 450.005 297.877 460.522C301.205 480.533 318.442 495.039 338.88 495.061C344.533 495.061 350.08 493.93 355.349 491.712C374.954 483.456 393.536 472.747 410.538 459.84C420.863 451.989 426.965 440.107 427.221 427.221C427.477 414.506 421.994 402.602 412.181 394.496C403.946 387.733 402.73 375.701 409.322 366.528C416.746 356.203 423.146 345.088 428.351 333.483C432.703 323.734 443.476 318.038 454.186 322.07C458.879 323.841 463.765 324.737 468.714 324.737C489.535 324.737 507.242 308.993 509.951 288.108C511.296 277.397 512 266.624 512 256C512 245.376 511.296 234.603 509.931 223.915ZM256 341.333C208.939 341.333 170.667 303.061 170.667 256C170.667 208.939 208.939 170.667 256 170.667C303.061 170.667 341.333 208.939 341.333 256C341.333 303.061 303.061 341.333 256 341.333Z" fill="white"/>
</svg>
